<?xml version="1.0" encoding="utf-8"?>
<!-- Generator: Adobe Illustrator 23.0.5, SVG Export Plug-In . SVG Version: 6.00 Build 0)  -->
<svg version="1.1" id="Capa_1" xmlns="http://www.w3.org/2000/svg" xmlns:xlink="http://www.w3.org/1999/xlink" x="0px" y="0px"
	 viewBox="0 0 96 96" style="enable-background:new 0 0 96 96;" xml:space="preserve">
<style type="text/css">
	.st0{fill:url(#SVGID_1_);}
	.st1{fill:url(#SVGID_2_);}
	.st2{fill:url(#SVGID_3_);}
	.st3{fill:url(#SVGID_4_);}
</style>
<g>
	<linearGradient id="SVGID_1_" gradientUnits="userSpaceOnUse" x1="47.2598" y1="101.3866" x2="47.2598" y2="7.8647">
		<stop  offset="0" style="stop-color:#BBD532"/>
		<stop  offset="0.1033" style="stop-color:#C6C92E"/>
		<stop  offset="0.3192" style="stop-color:#DFAB26"/>
		<stop  offset="0.5228" style="stop-color:#F6871F"/>
		<stop  offset="0.7089" style="stop-color:#E77360"/>
		<stop  offset="1" style="stop-color:#D14B9B"/>
	</linearGradient>
	<path class="st0" d="M47.26,9.11c-22.04,0-39.97,17.93-39.97,39.97c0,22.04,17.93,39.97,39.97,39.97s39.97-17.93,39.97-39.97
		C87.23,27.04,69.3,9.11,47.26,9.11z M47.26,82.05c-18.18,0-32.97-14.79-32.97-32.97s14.79-32.97,32.97-32.97
		S80.23,30.9,80.23,49.08S65.44,82.05,47.26,82.05z"/>
	<linearGradient id="SVGID_2_" gradientUnits="userSpaceOnUse" x1="47.5232" y1="101.3864" x2="47.5232" y2="7.8649">
		<stop  offset="0" style="stop-color:#BBD532"/>
		<stop  offset="0.1033" style="stop-color:#C6C92E"/>
		<stop  offset="0.3192" style="stop-color:#DFAB26"/>
		<stop  offset="0.5228" style="stop-color:#F6871F"/>
		<stop  offset="0.7089" style="stop-color:#E77360"/>
		<stop  offset="1" style="stop-color:#D14B9B"/>
	</linearGradient>
	<path class="st1" d="M47.52,39.38c-5.2,0-9.43,4.23-9.43,9.43c0,5.2,4.23,9.43,9.43,9.43c5.2,0,9.43-4.23,9.43-9.43
		C56.95,43.61,52.72,39.38,47.52,39.38z M47.52,54.85c-3.33,0-6.04-2.71-6.04-6.04c0-3.33,2.71-6.04,6.04-6.04
		c3.33,0,6.04,2.71,6.04,6.04C53.56,52.14,50.85,54.85,47.52,54.85z"/>
	<linearGradient id="SVGID_3_" gradientUnits="userSpaceOnUse" x1="57.5022" y1="101.3861" x2="57.5022" y2="7.865">
		<stop  offset="0" style="stop-color:#BBD532"/>
		<stop  offset="0.1033" style="stop-color:#C6C92E"/>
		<stop  offset="0.3192" style="stop-color:#DFAB26"/>
		<stop  offset="0.5228" style="stop-color:#F6871F"/>
		<stop  offset="0.7089" style="stop-color:#E77360"/>
		<stop  offset="1" style="stop-color:#D14B9B"/>
	</linearGradient>
	<path class="st2" d="M57.5,36.5c-1.24,0-2.24,1.01-2.24,2.24c0,1.24,1,2.24,2.24,2.24c1.24,0,2.24-1.01,2.24-2.24
		C59.75,37.5,58.74,36.5,57.5,36.5z"/>
	<linearGradient id="SVGID_4_" gradientUnits="userSpaceOnUse" x1="47.2601" y1="101.3865" x2="47.2601" y2="7.8652">
		<stop  offset="0" style="stop-color:#BBD532"/>
		<stop  offset="0.1033" style="stop-color:#C6C92E"/>
		<stop  offset="0.3192" style="stop-color:#DFAB26"/>
		<stop  offset="0.5228" style="stop-color:#F6871F"/>
		<stop  offset="0.7089" style="stop-color:#E77360"/>
		<stop  offset="1" style="stop-color:#D14B9B"/>
	</linearGradient>
	<path class="st3" d="M55.11,29.73H39.41c-6.35,0-11.5,5.15-11.5,11.5v15.69c0,6.35,5.15,11.5,11.5,11.5h15.69
		c6.35,0,11.5-5.15,11.5-11.5V41.23C66.61,34.88,61.46,29.73,55.11,29.73z M62.83,56.75c0,4.36-3.54,7.9-7.9,7.9H39.59
		c-4.36,0-7.9-3.54-7.9-7.9V41.4c0-4.36,3.54-7.9,7.9-7.9h15.35c4.36,0,7.9,3.54,7.9,7.9V56.75z"/>
</g>
</svg>
